<svg width="160" height="140" viewBox="0 0 160 140" fill="none" xmlns="http://www.w3.org/2000/svg">
<path fill-rule="evenodd" clip-rule="evenodd" d="M4.34329 73.0896C2.72366 72.5469 2.29992 70.499 3.69854 69.5184C22.7957 56.129 73.8375 49.4348 140.822 74.4843C138.066 69.0342 136.011 64.1615 135.823 60.7997C135.721 58.9904 136.987 57.314 138.775 57.0205C144.139 56.14 147.827 65.1501 150.287 82.9359C144.309 85.4887 129.238 91.9563 124.764 87.1392C122.861 85.0905 125.006 82.0479 127.742 81.4742C130.572 80.881 133.879 80.6548 137.501 80C62.3539 53.5642 31.3968 69.7897 5.32808 73.1875C4.99567 73.2308 4.66114 73.1961 4.34329 73.0896Z" fill="#FACD6E"/>
</svg>
