<svg width="180" height="46" viewBox="0 0 180 46" fill="none" xmlns="http://www.w3.org/2000/svg">
<g clip-path="url(#clip0_1040_112)">
<path fill-rule="evenodd" clip-rule="evenodd" d="M176.482 18.2488C177.178 18.2488 177.858 18.4558 178.437 18.8435C179.015 19.2312 179.466 19.7823 179.732 20.427C179.998 21.0718 180.068 21.7813 179.932 22.4657C179.797 23.1502 179.462 23.7789 178.97 24.2724C178.478 24.7658 177.851 25.1019 177.169 25.2381C176.486 25.3742 175.779 25.3043 175.136 25.0373C174.494 24.7702 173.944 24.3179 173.558 23.7377C173.171 23.1574 172.965 22.4752 172.965 21.7773C172.965 20.8415 173.335 19.944 173.995 19.2823C174.655 18.6206 175.549 18.2488 176.482 18.2488Z" fill="#7872B9"/>
<path fill-rule="evenodd" clip-rule="evenodd" d="M173.116 26.4408H179.855C179.651 29.4031 178.838 32.2911 177.468 34.9231C176.43 37.0867 174.861 38.9506 172.909 40.3404C171.915 41.0192 170.752 41.4051 169.55 41.4543C168.729 41.4672 167.92 41.2594 167.205 40.8524C165.054 39.524 163.757 36.5628 163.757 34.1413C163.757 34.0652 163.757 33.9822 163.757 33.8991V30.5574C163.722 29.063 163.881 27.5063 163.115 26.1641C162.86 25.6782 162.481 25.2687 162.018 24.977C161.554 24.6854 161.021 24.5221 160.474 24.5036H160.184C158.66 24.7112 157.681 26.1364 157.425 27.5548C157.338 28.0361 157.306 28.5259 157.329 29.0146V40.2643H151.694V29.5542C151.729 28.8882 151.694 28.2204 151.59 27.5617C151.266 26.0257 150.121 24.5106 148.432 24.5106H148.252C147.597 24.6229 146.987 24.923 146.498 25.3747C146.008 25.8264 145.66 26.4105 145.493 27.0566C145.238 28.0404 145.141 29.0586 145.204 30.0731V40.3681H139.527V19.3285H145.149V24.2061L145.838 22.7809C146.887 20.5808 148.907 18.8373 151.432 18.8373C154.246 18.8373 156.398 20.982 157.329 23.5073L157.667 24.4068L157.998 23.5073C158.936 20.982 161.088 18.8373 163.895 18.8373C164.707 18.8669 165.506 19.0576 166.245 19.3984C166.983 19.7392 167.647 20.2234 168.199 20.8229C169.457 22.1208 170.169 23.8554 170.185 25.666V32.1487C170.185 32.7539 170.276 33.3556 170.454 33.9337C170.813 35.1168 171.578 36.2861 173.151 36.2722V26.4408H173.116ZM75.0535 31.1248C74.261 30.2853 73.6711 29.2746 73.3293 28.1705C72.8969 26.8636 72.687 25.493 72.7085 24.1162V19.3977H78.84V23.7772C78.8952 29.0007 84.0059 29.0284 84.1094 23.7772V19.3838H89.7512V24.1023C89.7512 26.9597 88.9787 29.3121 87.5373 30.9656C84.6267 34.3073 77.8813 34.0583 75.0535 31.1109V31.1248ZM124.954 41.5027C123.749 41.5571 122.545 41.3698 121.412 40.9516C120.28 40.5334 119.243 39.8928 118.36 39.0674C117.526 38.2341 116.892 37.2215 116.505 36.1062C116.032 34.8103 115.798 33.4387 115.815 32.0588V19.3908H121.912V31.7198C121.912 33.3318 122.209 34.4249 122.899 35.1237C123.169 35.3923 123.493 35.5998 123.85 35.7322C124.207 35.8647 124.588 35.919 124.968 35.8917C125.405 35.9176 125.841 35.8389 126.242 35.6621C126.642 35.4852 126.995 35.2153 127.271 34.8747C127.902 33.9498 128.199 32.8368 128.113 31.7198V19.3908H134.182V32.0657C134.182 34.9231 133.368 37.2824 131.803 38.9221C131.012 39.7742 130.028 40.4222 128.934 40.8109C127.668 41.2959 126.322 41.5309 124.968 41.5027H124.954ZM102.463 40.5549C101.004 40.567 99.5567 40.2968 98.2001 39.7592C96.9535 39.2627 95.8237 38.511 94.8827 37.5522C93.9294 36.5635 93.1939 35.3849 92.7239 34.0929C91.666 31.2482 91.666 28.1163 92.7239 25.2716C93.1928 23.9966 93.9222 22.8339 94.8653 21.8581C95.8083 20.8823 96.9442 20.115 98.2001 19.6052C100.943 18.5443 103.982 18.5443 106.725 19.6052C107.981 20.115 109.117 20.8823 110.06 21.8581C111.003 22.8339 111.732 23.9966 112.201 25.2716C113.259 28.1163 113.259 31.2482 112.201 34.0929C111.729 35.3675 110.993 36.5275 110.042 37.4968C109.103 38.4639 107.973 39.2249 106.725 39.7315C105.369 40.271 103.921 40.5412 102.463 40.5272V40.5549ZM102.311 25.0018C101.718 24.9931 101.131 25.1122 100.588 25.3509C100.046 25.5896 99.5607 25.9424 99.1657 26.3855C98.364 27.3428 97.9245 28.553 97.9245 29.8033C97.9245 31.0536 98.364 32.2638 99.1657 33.2211C99.5626 33.6617 100.048 34.0128 100.59 34.2514C101.132 34.4899 101.719 34.6104 102.311 34.6048C102.908 34.6203 103.502 34.5044 104.05 34.2654C104.598 34.0263 105.087 33.6699 105.483 33.2211C106.285 32.2677 106.724 31.0608 106.724 29.8137C106.724 28.5666 106.285 27.3597 105.483 26.4063C105.09 25.9607 104.605 25.6053 104.063 25.3641C103.52 25.123 102.932 25.0018 102.338 25.0087L102.311 25.0018Z" fill="#7872B9"/>
<path d="M84.2461 29.3809H78.625V40.3608H84.2461V29.3809Z" fill="#7872B9"/>
<path fill-rule="evenodd" clip-rule="evenodd" d="M46.7555 -0.0371061C48.21 -0.0384748 49.6322 0.392914 50.8421 1.20249C52.0521 2.01206 52.9956 3.16344 53.5531 4.51098C54.1106 5.85851 54.2572 7.34165 53.9743 8.77277C53.6914 10.2039 52.9917 11.5187 51.9637 12.5508C50.9358 13.583 49.6257 14.2861 48.1993 14.5712C46.773 14.8563 45.2943 14.7107 43.9504 14.1527C42.6066 13.5947 41.4579 12.6494 40.6497 11.4364C39.8415 10.2234 39.4102 8.79715 39.4102 7.33816C39.4102 5.38332 40.1838 3.50844 41.5612 2.12551C42.9385 0.742574 44.8068 -0.0352723 46.7555 -0.0371061Z" fill="#7872B9"/>
<path fill-rule="evenodd" clip-rule="evenodd" d="M40.4376 17.7925H53.1075C52.6661 24.4621 49.9142 33.401 44.969 39.3441C41.7342 43.2254 37.8305 46.1174 33.2439 45.9791C32.8761 45.966 32.5096 45.9267 32.1473 45.8615C29.7771 45.4253 27.6708 44.0771 26.2779 42.1046C23.9122 38.9982 23.519 36.5213 22.8293 33.6155C21.4499 27.3195 15.0218 27.1811 13.1734 32.5846C12.8222 33.976 12.6919 35.4143 12.7872 36.8465V45.9929H0V36.1408C0.0689708 25.147 7.89716 16.0767 19.1049 16.7686C25.8847 17.1906 31.6231 21.8607 34.2233 28.129C35.1889 30.4536 35.2579 33.1657 37.0304 34.9507C37.4697 35.4084 38.0001 35.7681 38.5871 36.0066C39.1741 36.245 39.8046 36.3567 40.4376 36.3345V17.7925Z" fill="#7872B9"/>
<path fill-rule="evenodd" clip-rule="evenodd" d="M17.8484 -0.00976238C19.3028 -0.00976173 20.7246 0.422962 21.9338 1.23367C23.143 2.04438 24.0854 3.19665 24.6417 4.54471C25.1979 5.89277 25.3431 7.37604 25.0589 8.80689C24.7746 10.2377 24.0737 11.5519 23.0448 12.5831C22.0159 13.6142 20.7052 14.3161 19.2785 14.5999C17.8519 14.8837 16.3733 14.7366 15.03 14.1774C13.6867 13.6181 12.5389 12.6717 11.7318 11.4579C10.9248 10.2442 10.4947 8.81757 10.4961 7.35858C10.4961 6.39037 10.6863 5.43166 11.0559 4.53724C11.4255 3.64282 11.9671 2.83023 12.65 2.14592C13.3328 1.46162 14.1433 0.919012 15.0353 0.549125C15.9273 0.179238 16.8832 -0.0106715 17.8484 -0.00976238Z" fill="#7872B9"/>
</g>
<defs>
<clipPath id="clip0_1040_112">
<rect width="180" height="46" fill="white"/>
</clipPath>
</defs>
</svg>
