<svg width="40" height="40" viewBox="0 0 40 40" fill="none" xmlns="http://www.w3.org/2000/svg">
<circle cx="20" cy="20" r="20" fill="#D7C3E6"/>
<path d="M8.40227 19.776C15.7336 16.5507 25.2209 12.6185 26.5305 12.0742C29.9658 10.6497 31.0199 10.9227 30.4943 14.0774C30.1169 16.3448 29.0278 23.8517 28.1598 28.5242C27.6447 31.2951 26.4891 31.6235 24.672 30.4247C23.7982 29.8478 19.3876 26.9312 18.4304 26.2463C17.5565 25.6222 16.3514 24.8714 17.8628 23.3927C18.4006 22.8659 21.9263 19.4995 24.6732 16.8792C25.0331 16.535 24.581 15.9697 24.1657 16.2457C20.4633 18.7009 15.3299 22.1087 14.6766 22.5527C13.6896 23.2229 12.7417 23.5303 11.0401 23.0415C9.75444 22.6722 8.49852 22.2318 8.00969 22.0638C6.12727 21.4175 6.5741 20.5804 8.40227 19.776Z" fill="white"/>
</svg>
