<svg width="50" height="100" viewBox="0 0 50 100" fill="none" xmlns="http://www.w3.org/2000/svg">
<path fill-rule="evenodd" clip-rule="evenodd" d="M45.1982 9.38416C43.6376 22.4092 43.1127 35.5376 43.6283 48.6457C43.8302 61.3479 45.4374 73.9886 48.4206 86.3369C48.4206 87.494 48.999 88.7339 49.3295 89.9737C49.6223 91.1717 49.8431 92.3862 49.9905 93.6106C50.0506 94.5883 49.8248 95.5623 49.3406 96.4137C48.8563 97.265 48.1347 97.9569 47.2638 98.4046C45.3253 99.3412 43.2174 99.8754 41.067 99.9751C38.6836 100.074 36.2972 99.8793 33.9612 99.3965C32.2176 99.1704 30.5342 98.6091 29.0037 97.7434C27.1724 96.4625 25.7861 94.6423 25.0377 92.5361C24.1585 90.3318 23.4405 88.0666 22.8894 85.7583C21.6873 80.3169 20.9137 74.7895 20.5759 69.2271C19.9975 62.6973 19.667 55.9195 19.5844 48.9764C19.333 44.7371 19.333 40.4866 19.5844 36.2473C14.2652 36.6444 8.92116 35.941 3.88563 34.181C-4.37689 30.1308 2.48101 22.6918 6.61227 19.1376C13.8833 12.8557 27.1859 1.69716 27.6817 1.44919C29.3097 0.661081 31.0804 0.211197 32.887 0.126695C34.7009 -0.0422315 36.5265 -0.0422315 38.3403 0.126695C40.3366 0.26125 42.242 1.01212 43.7936 2.27575C44.552 3.27608 45.0727 4.4361 45.316 5.66777C45.5594 6.89945 45.5191 8.17039 45.1982 9.38416Z" fill="#7872B9"/>
</svg>
